<svg width="1022" height="1179" viewBox="0 0 1022 1179" fill="none" xmlns="http://www.w3.org/2000/svg">
<rect x="812.223" y="535.335" width="119.987" height="27.6894" fill="#1A4D8F"/>
<rect x="512.256" y="212.29" width="125.46" height="27.6894" transform="rotate(30 512.256 212.29)" fill="#1A4D8F"/>
<rect x="0.00244141" y="493.794" width="119.987" height="27.6894" fill="#1A4D8F"/>
<rect x="932.225" y="535.335" width="119.987" height="27.6894" transform="rotate(90 932.225 535.335)" fill="#1A4D8F"/>
<rect x="932.225" y="756.844" width="78.4533" height="27.6894" transform="rotate(90 932.225 756.844)" fill="#1A4D8F"/>
<rect x="445.757" y="892.164" width="123.608" height="27.6894" transform="rotate(120 445.757 892.164)" fill="#1A4D8F"/>
<rect x="839.91" y="396.889" width="96.9129" height="27.6894" transform="rotate(90 839.91 396.889)" fill="#1A4D8F"/>
<rect x="932.225" y="350.736" width="143.062" height="27.6894" transform="rotate(90 932.225 350.736)" fill="#1A4D8F"/>
<rect x="1019.91" y="295.358" width="586.093" height="27.6894" transform="rotate(90 1019.91 295.358)" fill="#1A4D8F"/>
<rect x="724.543" y="332.275" width="131.971" height="27.6894" transform="rotate(30 724.543 332.275)" fill="#1A4D8F"/>
<rect x="456.882" y="904.524" width="83.2266" height="27.6894" transform="rotate(30 456.882 904.524)" fill="#1A4D8F"/>
<rect x="124.609" y="346.126" width="46.149" height="27.6894" transform="rotate(90 124.609 346.126)" fill="#1A4D8F"/>
<rect x="410.732" y="987.594" width="130.954" height="27.6894" transform="rotate(30 410.732 987.594)" fill="#1A4D8F"/>
<rect x="346.119" y="1052.2" width="205.158" height="27.6894" transform="rotate(30 346.119 1052.2)" fill="#1A4D8F"/>
<rect x="497.299" y="1053.72" width="485.946" height="27.6894" transform="rotate(-30 497.299 1053.72)" fill="#1A4D8F"/>
<rect x="497.64" y="1152.42" width="588.094" height="27.6894" transform="rotate(-30 497.64 1152.42)" fill="#1A4D8F"/>
<rect x="202.605" y="751.965" width="277.358" height="27.6894" transform="rotate(30 202.605 751.965)" fill="#1A4D8F"/>
<rect x="106.146" y="812.228" width="334.061" height="27.6894" transform="rotate(30 106.146 812.228)" fill="#1A4D8F"/>
<rect x="13.8459" y="862.991" width="261.335" height="27.6894" transform="rotate(30 13.8459 862.991)" fill="#1A4D8F"/>
<rect x="839.91" y="563.026" width="216.9" height="27.6894" transform="rotate(90 839.91 563.026)" fill="#1A4D8F"/>
<rect x="840.415" y="780.829" width="372.485" height="27.6894" transform="rotate(150 840.415 780.829)" fill="#1A4D8F"/>
<rect x="216.909" y="396.889" width="378.422" height="27.6894" transform="rotate(90 216.909 396.889)" fill="#1A4D8F"/>
<rect x="120.004" y="493.794" width="341.503" height="27.6894" transform="rotate(90 120.004 493.794)" fill="#1A4D8F"/>
<rect x="27.6895" y="493.794" width="392.267" height="27.6894" transform="rotate(90 27.6895 493.794)" fill="#1A4D8F"/>
<rect x="32.3088" y="295.358" width="179.981" height="27.6894" transform="rotate(90 32.3088 295.358)" fill="#1A4D8F"/>
<rect x="525.639" y="236.261" width="372.485" height="27.6894" transform="rotate(150 525.639 236.261)" fill="#1A4D8F"/>
<rect x="526.293" y="129.888" width="479.958" height="27.6894" transform="rotate(150 526.293 129.888)" fill="#1A4D8F"/>
<rect x="528.283" y="25.4065" width="234.704" height="27.6894" transform="rotate(150 528.283 25.4065)" fill="#1A4D8F"/>
<rect x="223.697" y="199.345" width="237.717" height="27.6894" transform="rotate(150 223.697 199.345)" fill="#1A4D8F"/>
<rect x="1007.37" y="317.822" width="587.685" height="27.6894" transform="rotate(-150 1007.37 317.822)" fill="#1A4D8F"/>
<rect x="919.139" y="373.035" width="485.825" height="27.6894" transform="rotate(-150 919.139 373.035)" fill="#1A4D8F"/>
<path d="M327.66 1029.13C327.66 1057.16 304.933 1079.89 276.896 1079.89C248.86 1079.89 226.133 1057.16 226.133 1029.13C226.133 1001.09 248.86 978.364 276.896 978.364C304.933 978.364 327.66 1001.09 327.66 1029.13ZM253.241 1029.13C253.241 1042.19 263.832 1052.78 276.896 1052.78C289.961 1052.78 300.552 1042.19 300.552 1029.13C300.552 1016.06 289.961 1005.47 276.896 1005.47C263.832 1005.47 253.241 1016.06 253.241 1029.13Z" fill="#1A4D8F"/>
<path d="M969.14 724.546C969.14 752.582 946.412 775.31 918.376 775.31C890.34 775.31 867.612 752.582 867.612 724.546C867.612 696.51 890.34 673.782 918.376 673.782C946.412 673.782 969.14 696.51 969.14 724.546ZM894.721 724.546C894.721 737.61 905.312 748.201 918.376 748.201C931.44 748.201 942.031 737.61 942.031 724.546C942.031 711.481 931.44 700.89 918.376 700.89C905.312 700.89 894.721 711.481 894.721 724.546Z" fill="#1A4D8F"/>
<path d="M729.166 318.433C729.166 346.469 706.438 369.197 678.402 369.197C650.366 369.197 627.638 346.469 627.638 318.433C627.638 290.397 650.366 267.669 678.402 267.669C706.438 267.669 729.166 290.397 729.166 318.433ZM654.747 318.433C654.747 331.498 665.338 342.089 678.402 342.089C691.467 342.089 702.058 331.498 702.058 318.433C702.058 305.369 691.467 294.778 678.402 294.778C665.338 294.778 654.747 305.369 654.747 318.433Z" fill="#1A4D8F"/>
<path d="M327.66 152.297C327.66 180.333 304.933 203.061 276.896 203.061C248.86 203.061 226.133 180.333 226.133 152.297C226.133 124.26 248.86 101.533 276.896 101.533C304.933 101.533 327.66 124.26 327.66 152.297ZM253.241 152.297C253.241 165.361 263.832 175.952 276.896 175.952C289.961 175.952 300.552 165.361 300.552 152.297C300.552 139.232 289.961 128.641 276.896 128.641C263.832 128.641 253.241 139.232 253.241 152.297Z" fill="#1A4D8F"/>
<path d="M156.904 429.189C156.904 457.225 134.177 479.953 106.14 479.953C78.1042 479.953 55.3765 457.225 55.3765 429.189C55.3765 401.153 78.1042 378.425 106.14 378.425C134.177 378.425 156.904 401.153 156.904 429.189ZM82.4851 429.189C82.4851 442.253 93.076 452.844 106.14 452.844C119.205 452.844 129.796 442.253 129.796 429.189C129.796 416.124 119.205 405.533 106.14 405.533C93.076 405.533 82.4851 416.124 82.4851 429.189Z" fill="#1A4D8F"/>
<path d="M472.169 777.555C472.032 774.761 471.846 770.503 471.669 765.088C471.58 767.51 471.487 769.878 471.377 772.132C469.88 802.501 493.286 828.333 523.656 829.829C524.577 829.874 525.497 829.896 526.409 829.896C526.529 829.896 526.644 829.883 526.759 829.878C497.753 829.701 473.612 806.884 472.169 777.555Z" fill="#E0942F"/>
<path d="M509.05 525.677C482.081 496.614 447.266 467.869 423.502 449.364C399.516 430.682 364.919 434.98 346.241 458.975C327.559 482.965 331.862 517.558 355.852 536.236C394.62 566.428 436.159 605.63 443.565 618.973C449.617 634.202 452.751 666.046 453.903 698.474C455.177 657.404 459.764 608.304 473.041 576.256C479.478 560.717 492.847 543.138 509.05 525.677Z" fill="#1A4D8F"/>
<path d="M581.844 765.164C582.282 751.56 582.632 730.571 581.893 706.966C581.158 727.468 581.22 748.204 581.844 765.164Z" fill="#E0942F"/>
<path d="M526.768 829.882C526.888 829.882 527.003 829.899 527.118 829.899C528.03 829.899 528.955 829.877 529.872 829.833C560.241 828.337 583.647 802.505 582.15 772.135C582.04 769.9 581.942 767.562 581.854 765.163C581.681 770.541 581.495 774.774 581.358 777.558C579.91 806.883 555.77 829.696 526.768 829.882Z" fill="#1A4D8F"/>
<path d="M707.281 458.974C688.599 434.984 654.01 430.68 630.02 449.363C606.256 467.863 571.441 496.612 544.472 525.676C560.675 543.136 574.044 560.712 580.477 576.25C593.714 608.209 598.313 657.11 599.606 698.109C600.762 665.841 603.896 634.196 609.952 618.971C617.438 605.469 658.18 567.025 697.678 536.226C721.66 517.543 725.958 482.959 707.281 458.974Z" fill="#9DC44D"/>
<path d="M471.607 707.325C470.881 730.744 471.226 751.551 471.664 765.089C472.271 748.244 472.328 727.676 471.607 707.325Z" fill="#1A4D8F"/>
<path d="M526.765 534.532C510.562 551.992 497.192 569.567 490.755 585.106C477.478 617.158 472.892 666.254 471.617 707.324C472.339 727.675 472.281 748.238 471.675 765.088C471.847 770.498 472.038 774.761 472.175 777.554C473.623 806.883 497.763 829.7 526.765 829.882C555.766 829.696 579.911 806.879 581.355 777.554C581.492 774.774 581.678 770.537 581.85 765.159C581.226 748.199 581.16 727.462 581.899 706.961C580.611 665.966 576.011 617.061 562.77 585.102C556.337 569.572 542.968 551.996 526.765 534.532Z" fill="#9DC44D"/>
<path d="M529.702 477.25C559.869 475.613 582.997 449.83 581.359 419.662C579.722 389.495 553.939 366.367 523.771 368.004C493.604 369.642 470.476 395.425 472.114 425.592C473.751 455.76 499.534 478.888 529.702 477.25Z" fill="#9DC44D"/>
<path d="M527.146 615.211C522.657 615.211 519.022 611.572 519.022 607.087C519.022 602.598 522.661 598.959 527.146 598.959C531.635 598.959 535.274 602.598 535.274 607.087C535.274 611.572 531.635 615.211 527.146 615.211Z" fill="white"/>
<path d="M527.147 657.899C520.37 657.899 514.871 652.4 514.871 645.622C514.871 638.84 520.37 633.346 527.147 633.346C533.93 633.346 539.424 638.84 539.424 645.622C539.424 652.4 533.93 657.899 527.147 657.899Z" fill="white"/>
<path d="M527.151 697.874C519.577 697.874 513.436 691.734 513.436 684.159C513.436 676.584 519.577 670.444 527.151 670.444C534.726 670.444 540.866 676.584 540.866 684.159C540.866 691.734 534.726 697.874 527.151 697.874Z" fill="white"/>
<path d="M527.148 735.497C520.078 735.497 514.349 729.764 514.349 722.699C514.349 715.629 520.078 709.9 527.148 709.9C534.218 709.9 539.946 715.629 539.946 722.699C539.946 729.764 534.218 735.497 527.148 735.497Z" fill="white"/>
<path d="M527.155 770.508C522.033 770.508 517.881 766.355 517.881 761.233C517.881 756.111 522.033 751.958 527.155 751.958C532.278 751.958 536.43 756.111 536.43 761.233C536.43 766.355 532.278 770.508 527.155 770.508Z" fill="white"/>
<path d="M527.149 805.324C524.085 805.324 521.602 802.841 521.602 799.777C521.602 796.709 524.085 794.23 527.149 794.23C530.212 794.23 532.696 796.714 532.696 799.777C532.7 802.841 530.212 805.324 527.149 805.324Z" fill="white"/>
<path d="M527.149 574.097C524.085 574.097 521.602 571.614 521.602 568.55C521.602 565.482 524.085 563.003 527.149 563.003C530.212 563.003 532.696 565.486 532.696 568.55C532.7 571.614 530.212 574.097 527.149 574.097Z" fill="white"/>
</svg>
